<svg width="90.319" height="83.46" viewBox="0 0 90.319 83.46" xmlns="http://www.w3.org/2000/svg"><g id="svgGroup" stroke-linecap="round" fill-rule="evenodd" font-size="9pt" stroke="#000" stroke-width="0.25mm" fill="#000" style="stroke:#000;stroke-width:0.25mm;fill:#000"><path d="M 90.319 73.265 A 6.833 6.833 0 0 0 90.3 72.76 Q 90.2 71.36 89.4 70.76 A 4.898 4.898 0 0 1 88.683 70.098 A 6.189 6.189 0 0 1 88 69.16 Q 87.77 68.701 87.072 67.714 A 48.354 48.354 0 0 0 86.6 67.06 Q 85.5 65.56 84.2 63.86 Q 82.9 62.16 81.8 60.86 Q 80.7 59.56 80.3 59.46 A 3.291 3.291 0 0 0 80.25 59.818 Q 80.227 60.077 80.236 60.377 A 6.62 6.62 0 0 0 80.25 60.66 Q 80.3 61.36 80.3 61.96 A 12.701 12.701 0 0 1 80.341 62.278 Q 80.371 62.533 80.386 62.757 A 6.217 6.217 0 0 1 80.4 63.16 A 4.146 4.146 0 0 1 80.398 63.302 Q 80.385 63.676 80.3 63.76 Q 79 62.06 78.45 61.16 A 6.549 6.549 0 0 1 78.445 61.153 Q 78.156 60.678 77.922 60.105 A 10.08 10.08 0 0 1 77.55 59.01 A 49.787 49.787 0 0 0 77.537 58.965 Q 77.185 57.713 76.4 55.16 Q 76.4 55.86 76.45 56.61 Q 76.5 57.36 76.6 58.16 A 27.491 27.491 0 0 1 76.705 59.146 A 23.426 23.426 0 0 1 76.8 61.21 A 3.392 3.392 0 0 1 76.48 62.672 A 3.871 3.871 0 0 1 75.7 63.76 Q 75.5 62.86 75.45 61.71 Q 75.4 60.56 75.4 59.36 L 75.4 58.36 Q 75.1 58.56 74.9 58.86 A 2.891 2.891 0 0 0 74.774 59.067 A 2.358 2.358 0 0 0 74.6 59.46 A 1.478 1.478 0 0 1 74.548 59.596 A 1.204 1.204 0 0 1 74.3 59.96 A 0.213 0.213 0 0 1 74.144 60.027 Q 73.967 60.027 73.7 59.76 Q 73.897 60.614 73.965 61.79 A 23.061 23.061 0 0 1 74 63.11 Q 74 65.16 73.8 66.96 A 11.036 11.036 0 0 1 73.729 67.486 Q 73.59 68.358 73.336 68.916 A 2.29 2.29 0 0 1 73 69.46 A 7.868 7.868 0 0 1 70.394 71.352 A 10.232 10.232 0 0 1 67.85 72.11 A 15.415 15.415 0 0 1 65.273 72.327 Q 65.147 72.327 65.02 72.325 A 16.836 16.836 0 0 1 61.2 71.81 Q 57.8 70.96 55.2 68.76 Q 52.6 66.56 51.8 63.06 A 46.018 46.018 0 0 1 51.79 62.69 Q 51.745 60.652 51.864 58.141 A 104.52 104.52 0 0 1 52.05 55.16 Q 52.4 50.56 53.4 45.81 A 41.215 41.215 0 0 1 53.666 44.634 A 36.48 36.48 0 0 1 56.4 37.01 A 19.442 19.442 0 0 1 57.481 35.095 A 15.648 15.648 0 0 1 61.7 30.66 A 9.855 9.855 0 0 0 61.981 30.719 Q 63.354 30.982 65.186 30.947 A 25.587 25.587 0 0 0 66.15 30.91 A 397.488 397.488 0 0 0 66.173 30.909 Q 68.806 30.76 70.1 30.66 A 75.829 75.829 0 0 0 69.962 29.817 Q 69.741 28.514 69.55 27.71 A 15.341 15.341 0 0 0 69.549 27.706 Q 69.299 26.656 68.7 24.56 A 33.249 33.249 0 0 0 68.005 23.978 Q 66.503 22.755 65.027 21.855 A 18.857 18.857 0 0 0 61.65 20.21 Q 58.2 18.96 54.4 19.16 A 5.092 5.092 0 0 1 53.954 19.624 Q 52.9 20.591 51.15 21.16 Q 49 21.86 46.45 22.16 Q 43.9 22.46 41.65 22.56 Q 39.4 22.66 38.2 22.76 Q 38.8 19.56 39.2 15.56 Q 39.6 11.56 39.5 7.26 A 6.467 6.467 0 0 0 39.498 7.257 Q 39.105 6.302 38.396 5.411 A 10.657 10.657 0 0 0 37.1 4.06 Q 35.4 2.56 34.5 1.86 Q 33.3 1.86 32.1 1.51 A 151.124 151.124 0 0 0 31.506 1.339 A 131.843 131.843 0 0 0 29.8 0.86 A 21.942 21.942 0 0 0 29.245 0.674 Q 27.575 0.139 26.2 0.01 A 2.36 2.36 0 0 0 25.98 0 Q 24.893 0 24.098 1.047 A 5.153 5.153 0 0 0 23.6 1.86 Q 24.1 2.56 24.5 3.51 A 4.361 4.361 0 0 0 24.7 3.921 Q 24.917 4.315 25.234 4.718 A 8.555 8.555 0 0 0 25.9 5.46 A 10.664 10.664 0 0 1 29.178 9.322 A 12.42 12.42 0 0 1 30.35 13.31 Q 31 18.36 29.9 23.46 Q 28.3 23.66 26.7 23.96 A 64.604 64.604 0 0 1 25.906 24.104 A 57.923 57.923 0 0 1 23.6 24.46 Q 18.6 25.36 13.95 25.91 Q 9.3 26.46 4.6 25.96 Q 4.463 25.96 4.278 25.913 A 2.608 2.608 0 0 1 4.1 25.86 A 11.804 11.804 0 0 0 3.754 25.803 A 13.052 13.052 0 0 0 1.8 25.66 A 2.53 2.53 0 0 0 1.69 25.663 Q 0.974 25.694 0.482 26.136 A 2.324 2.324 0 0 0 0 26.76 A 15.66 15.66 0 0 0 0.828 28.653 A 18.627 18.627 0 0 0 2.75 31.61 A 16.772 16.772 0 0 0 2.895 31.793 A 14.734 14.734 0 0 0 7.05 35.36 A 9.668 9.668 0 0 0 8.433 36.017 Q 9.75 36.513 11.051 36.513 A 6.835 6.835 0 0 0 11.9 36.46 A 7.876 7.876 0 0 0 13.83 35.999 A 10.135 10.135 0 0 0 15.7 35.06 A 21.15 21.15 0 0 1 16.84 34.392 Q 18.444 33.514 20.65 32.61 A 15.611 15.611 0 0 1 22.901 31.896 Q 24.14 31.597 25.605 31.413 A 37.637 37.637 0 0 1 28.8 31.16 Q 28.3 33.46 27.25 37.61 A 133.392 133.392 0 0 1 26.555 40.243 A 157.321 157.321 0 0 1 24.75 46.31 A 43.924 43.924 0 0 1 23.465 49.834 A 34.594 34.594 0 0 1 21.2 54.36 A 43.834 43.834 0 0 1 19.866 57.917 A 56.962 56.962 0 0 1 17.85 62.16 Q 15.7 66.26 13.3 70.06 Q 10.9 73.86 8.75 76.91 A 287.182 287.182 0 0 1 7.789 78.266 Q 6.295 80.359 5.3 81.66 Q 6.851 81.323 8.129 81.418 A 6.427 6.427 0 0 1 9.3 81.61 A 3.641 3.641 0 0 1 9.361 81.627 Q 10.98 82.086 9.9 83.46 Q 13.5 82.46 15.45 80.11 Q 17.4 77.76 18.85 75.06 A 26.84 26.84 0 0 1 19.41 74.069 A 23.582 23.582 0 0 1 22.2 70.26 Q 23.888 67.385 25.555 63.749 A 110.987 110.987 0 0 0 27.55 59.11 A 220.534 220.534 0 0 0 29.192 54.929 A 258.89 258.89 0 0 0 32.7 45.11 A 254.969 254.969 0 0 0 32.739 44.994 A 232.586 232.586 0 0 0 37.1 30.46 Q 39.3 29.76 42.65 29.31 Q 46 28.86 49.1 28.56 A 114.035 114.035 0 0 0 48.106 32.812 A 139.157 139.157 0 0 0 46.7 40.46 Q 45.7 46.86 45.35 53.21 A 92.74 92.74 0 0 0 45.206 58.313 Q 45.206 61.866 45.5 65.16 Q 46 69.96 49.2 73.56 A 21.455 21.455 0 0 0 52.606 76.639 A 26.45 26.45 0 0 0 57.45 79.41 A 35.076 35.076 0 0 0 61.571 80.939 A 41.995 41.995 0 0 0 68.7 82.41 Q 74.9 83.16 81.3 82.46 Q 81.9 81.86 82.8 81.26 L 84.6 80.06 Q 86.7 78.76 88.6 77.11 A 4.875 4.875 0 0 0 89.941 75.282 Q 90.319 74.368 90.319 73.265 Z M 75.122 55.896 A 1.675 1.675 0 0 0 75.1 55.66 A 6.786 6.786 0 0 0 75.064 55.352 Q 74.967 54.642 74.698 53.64 A 29.727 29.727 0 0 0 74.4 52.61 A 315.957 315.957 0 0 1 74.238 52.083 Q 73.885 50.927 73.755 50.465 A 7.86 7.86 0 0 1 73.7 50.26 Q 73.5 52.16 73.55 53.66 Q 73.6 55.16 74 56.66 A 15.927 15.927 0 0 0 73.99 56.842 Q 73.922 58.166 74.166 58.166 A 0.107 0.107 0 0 0 74.2 58.16 A 0.346 0.346 0 0 0 74.291 58.112 Q 74.49 57.97 74.71 57.493 A 5.958 5.958 0 0 0 74.85 57.16 A 5.25 5.25 0 0 0 74.968 56.825 Q 75.131 56.303 75.122 55.896 Z" id="0" vector-effect="non-scaling-stroke"/></g></svg>