<svg width="93.5" height="88.2" viewBox="0 0 93.5 88.2" xmlns="http://www.w3.org/2000/svg"><g id="svgGroup" stroke-linecap="round" fill-rule="evenodd" font-size="9pt" stroke="#000" stroke-width="0.25mm" fill="#000" style="stroke:#000;stroke-width:0.25mm;fill:#000"><path d="M 42.9 42.8 L 39.9 42.8 Q 31.9 42.8 24.25 44.25 Q 16.6 45.7 8.9 47.9 Q 5.9 45.3 3.4 42.95 A 10.601 10.601 0 0 1 1.044 39.615 Q 0.421 38.262 0.049 36.62 A 18.648 18.648 0 0 1 0 36.4 Q 0.8 36 1.75 35.75 Q 2.7 35.5 3.7 35.5 Q 5.8 35.5 7.4 36.8 Q 16.3 36.2 25.1 35.75 Q 33.9 35.3 42.7 34.7 Q 42.7 31.4 42.9 28.15 Q 43.1 24.9 43.1 21.6 A 75.876 75.876 0 0 0 42.85 15.5 Q 42.6 12.4 41.5 9.6 Q 40.6 7.1 38.75 5.05 A 10.711 10.711 0 0 1 36.813 2.055 A 9.859 9.859 0 0 1 36.3 0.5 A 7.771 7.771 0 0 1 37.653 0.11 A 6.201 6.201 0 0 1 38.8 0 Q 40.1 0 41.3 0.5 Q 42.5 1 43.7 1.6 Q 45 2.2 46.4 2.75 A 7.967 7.967 0 0 0 48.542 3.254 A 9.763 9.763 0 0 0 49.5 3.3 A 5.064 5.064 0 0 0 50.384 4.889 A 6.433 6.433 0 0 0 50.95 5.5 A 118.003 118.003 0 0 1 52.469 6.972 A 105.179 105.179 0 0 1 52.95 7.45 A 3.471 3.471 0 0 1 53.574 8.28 A 2.785 2.785 0 0 1 53.9 9.6 A 5.709 5.709 0 0 1 53.628 11.312 A 7.1 7.1 0 0 1 53.35 12.05 A 10.994 10.994 0 0 0 52.799 13.593 A 9.265 9.265 0 0 0 52.6 14.5 Q 52.3 16.8 52.25 19.15 A 73.387 73.387 0 0 0 52.233 20.711 A 71.105 71.105 0 0 0 52.3 23.8 L 52.3 25.35 L 52.3 26.9 Q 52.3 28.6 52.25 30.35 Q 52.2 32.1 52 33.8 A 26.669 26.669 0 0 0 54.713 34.043 A 29.22 29.22 0 0 0 54.9 34.05 A 88.269 88.269 0 0 0 57.448 34.099 A 79.46 79.46 0 0 0 57.8 34.1 Q 60.7 34.1 63.5 34 Q 66.3 33.9 69.1 33.9 A 30.778 30.778 0 0 1 71.146 33.966 A 27.442 27.442 0 0 1 71.6 34 A 29.48 29.48 0 0 0 73.616 34.096 A 33.077 33.077 0 0 0 74.1 34.1 A 0.718 0.718 0 0 0 74.576 33.914 Q 74.689 33.817 74.792 33.669 A 2.168 2.168 0 0 0 74.95 33.4 A 5.723 5.723 0 0 1 75.22 32.917 Q 75.364 32.688 75.515 32.504 A 2.892 2.892 0 0 1 75.7 32.3 Q 78.8 32.8 82.4 33.65 Q 86 34.5 89.1 36.2 Q 92.2 37.9 93.5 41.2 Q 92.5 42.1 91.3 42.45 Q 90.1 42.8 88.8 42.8 A 14.389 14.389 0 0 1 87.761 42.761 A 17.328 17.328 0 0 1 87.1 42.7 Q 86.2 42.6 85.4 42.5 Q 79.9 42 74.3 41.65 Q 68.7 41.3 63.1 41.3 Q 60.6 41.3 57.6 41.6 Q 54.6 41.9 52 42.1 Q 51.8 44.6 51.85 48.85 Q 51.9 53.1 52 57.2 Q 52 59.3 52.05 61.1 A 152.859 152.859 0 0 1 52.08 62.38 Q 52.09 62.884 52.095 63.339 A 80.475 80.475 0 0 1 52.1 64.2 A 60.388 60.388 0 0 1 51.906 68.924 A 76.103 76.103 0 0 1 51.55 72.4 Q 51.129 75.769 50.854 78.082 A 411.609 411.609 0 0 0 50.7 79.4 Q 50.6 80.8 50.3 82.8 A 12.937 12.937 0 0 1 49.767 85.034 A 10.787 10.787 0 0 1 49.2 86.4 A 3.092 3.092 0 0 1 47.134 88.086 A 4.274 4.274 0 0 1 46.5 88.2 A 6.259 6.259 0 0 1 45.848 87.233 Q 45.259 86.175 44.8 84.6 A 39.967 39.967 0 0 1 44.023 81.444 A 48.299 48.299 0 0 1 43.65 79.4 A 55.211 55.211 0 0 1 43.144 75.313 A 48.604 48.604 0 0 1 43.05 74 Q 42.9 71.4 42.9 69.8 Q 42.9 65.1 43.05 60.5 Q 43.2 55.9 43.2 51.3 Q 43.2 47 42.9 42.8 Z" id="0" vector-effect="non-scaling-stroke"/></g></svg>