<svg width="83.561" height="84.569" viewBox="0 0 83.561 84.569" xmlns="http://www.w3.org/2000/svg"><g id="svgGroup" stroke-linecap="round" fill-rule="evenodd" font-size="9pt" stroke="#000" stroke-width="0.25mm" fill="#000" style="stroke:#000;stroke-width:0.25mm;fill:#000"><path d="M 72.922 39.869 Q 68.022 41.069 61.872 41.669 Q 55.722 42.269 49.572 42.319 A 166.222 166.222 0 0 1 48.221 42.325 Q 45.549 42.325 43.125 42.236 A 103.094 103.094 0 0 1 38.522 41.969 Q 37.822 41.569 37.522 40.469 A 3.427 3.427 0 0 0 37.328 39.927 Q 37.031 39.287 36.522 39.069 A 20.519 20.519 0 0 0 35.869 44.24 A 21.626 21.626 0 0 0 35.872 44.619 Q 35.916 47.099 35.467 50.223 A 52.908 52.908 0 0 1 35.322 51.169 A 10.177 10.177 0 0 0 35.928 51.212 Q 37.282 51.266 38.219 50.903 A 3.533 3.533 0 0 0 38.522 50.769 Q 39.722 50.169 40.722 49.369 A 1.844 1.844 0 0 0 40.838 49.307 Q 40.895 49.273 40.94 49.239 A 0.734 0.734 0 0 0 41.022 49.169 A 28.392 28.392 0 0 1 43.689 49.5 Q 45.76 49.863 47.322 50.519 A 13.527 13.527 0 0 1 50.183 52.179 A 17.988 17.988 0 0 1 52.122 53.869 Q 52.055 54.339 51.898 54.539 A 0.376 0.376 0 0 1 51.722 54.669 A 0.987 0.987 0 0 1 51.473 54.717 Q 51.34 54.725 51.192 54.703 A 1.786 1.786 0 0 1 51.022 54.669 L 50.472 54.669 Q 50.122 54.669 49.822 54.869 Q 50.122 56.369 50.822 57.069 A 11.652 11.652 0 0 0 50.325 58.89 Q 50.148 59.81 50.069 60.869 A 22.354 22.354 0 0 0 50.022 61.719 Q 49.922 64.469 50.022 67.469 Q 50.022 70.769 49.922 74.019 A 22.239 22.239 0 0 1 49.592 77.278 A 17.274 17.274 0 0 1 48.922 79.869 A 5.209 5.209 0 0 1 48.662 79.876 Q 44.857 79.876 42.922 74.169 Q 43.422 71.669 43.472 69.069 A 91.314 91.314 0 0 0 43.489 67.314 A 102.149 102.149 0 0 0 43.422 63.669 A 99.568 99.568 0 0 1 43.279 60.581 A 108.784 108.784 0 0 1 43.272 60.369 A 38.928 38.928 0 0 1 43.256 59.225 A 42.47 42.47 0 0 1 43.322 56.869 A 5.693 5.693 0 0 0 42.842 56.889 A 4.731 4.731 0 0 0 42.572 56.919 Q 42.222 56.969 41.922 56.969 A 71.133 71.133 0 0 1 40.698 57.015 Q 39.285 57.055 38.222 57.019 A 7.819 7.819 0 0 1 37.013 56.876 Q 35.935 56.669 34.622 56.169 Q 34.122 57.069 34.022 58.069 Q 33.922 59.069 33.822 60.169 A 29.123 29.123 0 0 1 33.511 62.94 A 32.595 32.595 0 0 1 33.422 63.469 A 5.325 5.325 0 0 1 32.611 65.467 A 7.548 7.548 0 0 1 31.622 66.669 Q 31.022 69.769 30.822 72.269 A 5.58 5.58 0 0 1 28.971 76.004 A 7.721 7.721 0 0 1 28.422 76.469 A 1.278 1.278 0 0 1 28.636 77.195 Q 28.636 77.549 28.472 77.969 A 1.289 1.289 0 0 1 28.237 78.365 Q 27.877 78.768 27.193 78.694 A 2.387 2.387 0 0 1 27.022 78.669 A 0.532 0.532 0 0 1 27.094 78.524 Q 27.207 78.369 27.422 78.369 A 0.315 0.315 0 0 0 27.56 78.341 Q 27.694 78.277 27.717 78.067 A 0.875 0.875 0 0 0 27.722 77.969 A 0.663 0.663 0 0 0 27.574 77.878 Q 27.135 77.686 26.622 78.369 Q 26.222 78.869 25.722 79.219 A 0.907 0.907 0 0 1 25.281 79.377 Q 24.878 79.416 24.322 79.169 A 108.671 108.671 0 0 0 25.334 74.585 Q 25.803 72.232 26.237 69.603 A 186.47 186.47 0 0 0 26.522 67.819 A 240.86 240.86 0 0 0 27.854 57.807 A 272.22 272.22 0 0 0 28.222 54.319 A 199.954 199.954 0 0 0 29.109 40.988 A 184.063 184.063 0 0 0 29.122 40.569 Q 29.122 39.869 29.172 39.169 Q 29.222 38.469 29.322 37.669 Q 29.522 34.569 29.522 31.519 Q 29.522 28.469 28.022 27.169 A 3.698 3.698 0 0 0 29.13 24.493 Q 29.13 24.468 29.13 24.443 A 4.928 4.928 0 0 0 29.122 24.169 A 19.684 19.684 0 0 0 28.893 22.111 A 25.814 25.814 0 0 0 28.522 20.269 Q 28.322 19.069 28.122 17.919 Q 27.922 16.769 27.922 15.569 A 1.014 1.014 0 0 0 27.865 15.429 Q 27.657 15.022 27.222 15.369 A 2.175 2.175 0 0 1 26.993 15.504 Q 26.543 15.73 26.222 15.569 A 3.888 3.888 0 0 0 26.417 14.895 Q 26.59 13.978 26.222 13.169 Q 25.722 12.069 24.922 10.869 L 24.522 10.269 L 24.122 9.669 Q 23.522 8.569 23.272 7.369 A 3.122 3.122 0 0 1 23.206 6.731 Q 23.206 5.827 23.722 4.869 Q 27.322 5.569 30.422 7.569 Q 33.522 9.569 35.122 13.169 A 12.791 12.791 0 0 1 36.045 15.892 A 16.714 16.714 0 0 1 36.372 18.019 A 18.338 18.338 0 0 1 36.445 19.484 Q 36.468 21.67 36.022 24.269 A 2.232 2.232 0 0 0 36.603 24.412 Q 36.87 24.442 37.168 24.42 A 3.603 3.603 0 0 0 37.172 24.419 Q 37.822 24.369 38.622 24.169 A 35.633 35.633 0 0 1 39.931 24.064 A 43.623 43.623 0 0 1 40.772 24.019 Q 41.756 23.976 42.704 24.41 A 5.051 5.051 0 0 1 43.022 24.569 Q 43.322 22.969 43.372 20.969 A 53.795 53.795 0 0 0 43.389 19.625 A 57.937 57.937 0 0 0 43.322 16.869 Q 43.322 15.569 43.272 14.319 A 20.71 20.71 0 0 1 43.256 13.491 A 19.527 19.527 0 0 1 43.322 11.869 Q 41.922 10.169 40.822 8.019 A 16.56 16.56 0 0 1 39.615 4.882 A 20.265 20.265 0 0 1 39.222 3.169 Q 39.522 2.869 40.022 3.069 Q 40.418 3.228 40.751 3.01 A 1.074 1.074 0 0 0 40.922 2.869 A 43.042 43.042 0 0 1 45.689 4.829 A 38.918 38.918 0 0 1 46.372 5.169 A 10.507 10.507 0 0 1 49.516 7.657 A 13.694 13.694 0 0 1 50.722 9.269 A 61.507 61.507 0 0 1 50.933 13.208 Q 50.999 16.149 50.822 19.419 A 165.668 165.668 0 0 1 50.33 26.103 A 138.571 138.571 0 0 1 49.922 29.869 A 4.88 4.88 0 0 0 47.849 28.983 Q 46.904 28.808 45.772 28.919 A 61.354 61.354 0 0 0 41.195 29.548 A 68.115 68.115 0 0 0 40.522 29.669 A 126.342 126.342 0 0 0 38.929 29.969 A 109.934 109.934 0 0 0 38.422 30.069 Q 37.422 30.269 36.422 30.369 Q 36.422 30.599 36.393 30.887 A 7.954 7.954 0 0 1 36.372 31.069 Q 36.323 31.466 36.322 31.961 A 10.873 10.873 0 0 0 36.322 31.969 A 23.67 23.67 0 0 0 36.147 33.244 A 32.504 32.504 0 0 0 36.022 34.669 Q 35.953 35.712 36.077 36.61 A 7.165 7.165 0 0 0 36.222 37.369 Q 39.129 36.691 42.832 36.576 A 47.216 47.216 0 0 1 43.072 36.569 A 361.149 361.149 0 0 0 49.044 36.363 A 411.493 411.493 0 0 0 51.122 36.269 Q 55.322 36.069 59.322 35.269 A 6.184 6.184 0 0 0 60.525 34.892 A 8.049 8.049 0 0 0 61.372 34.469 A 6.074 6.074 0 0 1 62.346 34.017 A 4.556 4.556 0 0 1 63.422 33.769 A 7.294 7.294 0 0 1 63.877 33.755 A 7.061 7.061 0 0 1 66.522 34.269 Q 68.022 34.869 69.322 35.569 A 22.462 22.462 0 0 0 70.303 36.084 A 17.533 17.533 0 0 0 71.022 36.419 A 10.158 10.158 0 0 0 72.522 36.944 A 9.384 9.384 0 0 0 72.622 36.969 Q 73.322 37.569 73.272 38.069 Q 73.222 38.569 73.122 38.969 Q 72.966 39.438 72.932 39.723 A 1.235 1.235 0 0 0 72.922 39.869 Z M 83.561 10.942 A 19.98 19.98 0 0 0 83.422 8.569 A 18.566 18.566 0 0 0 81.746 6.832 A 23.956 23.956 0 0 0 79.422 4.969 A 28.826 28.826 0 0 0 78.236 4.17 Q 76.54 3.092 75.122 2.569 Q 74.435 2.019 73.369 1.375 A 32.899 32.899 0 0 0 72.322 0.769 Q 70.938 0 69.79 0 A 3.177 3.177 0 0 0 69.122 0.069 A 5.124 5.124 0 0 0 69.077 0.194 Q 68.77 1.082 68.833 1.969 A 4.611 4.611 0 0 0 69.122 3.269 A 21.098 21.098 0 0 0 69.317 3.769 A 23.404 23.404 0 0 0 70.622 6.469 A 157.068 157.068 0 0 1 70.66 6.538 A 144.552 144.552 0 0 1 71.772 8.619 Q 72.322 9.669 72.622 10.869 A 18.618 18.618 0 0 1 72.77 11.556 A 16.232 16.232 0 0 1 73.072 14.169 A 108.098 108.098 0 0 1 73.084 14.568 A 98.121 98.121 0 0 1 73.122 17.269 Q 73.122 18.569 73.172 19.769 A 18.442 18.442 0 0 0 73.188 20.086 A 16.509 16.509 0 0 0 73.422 22.069 A 16.889 16.889 0 0 0 72.934 22.028 Q 72.512 21.998 72.036 21.983 A 31.38 31.38 0 0 0 71.072 21.969 A 38.388 38.388 0 0 0 70.214 21.979 A 45.148 45.148 0 0 0 68.222 22.069 Q 66.822 22.169 65.522 22.169 Q 64.222 22.169 63.322 22.069 Q 63.522 20.469 63.672 18.619 Q 63.822 16.769 63.922 14.969 A 7.571 7.571 0 0 1 63.922 14.963 Q 63.923 14.364 64.022 13.419 Q 64.122 12.469 64.222 11.369 Q 64.322 10.069 64.422 8.919 Q 64.51 7.913 64.521 7.711 A 0.875 0.875 0 0 0 64.522 7.669 Q 64.222 6.069 62.522 4.469 Q 60.822 2.869 58.622 1.819 Q 56.422 0.769 54.622 0.969 Q 55.922 3.869 56.172 6.919 Q 56.422 9.969 56.422 13.169 Q 56.522 15.469 56.622 17.869 Q 56.722 20.269 57.222 22.669 A 0.961 0.961 0 0 1 56.914 22.92 Q 56.558 23.107 55.974 23.083 A 3.759 3.759 0 0 1 55.772 23.069 Q 55.029 22.998 54.711 23.379 A 0.965 0.965 0 0 0 54.522 23.769 A 6.981 6.981 0 0 0 55.442 25.019 A 7.404 7.404 0 0 0 57.722 26.669 Q 59.822 27.669 62.322 27.869 Q 63.256 27.936 64.278 27.936 A 33.448 33.448 0 0 0 65.322 27.919 A 110.7 110.7 0 0 0 65.724 27.906 A 121.543 121.543 0 0 0 68.622 27.769 Q 69.922 27.669 71.222 27.619 Q 72.522 27.569 73.822 27.569 Q 74.322 33.469 74.472 38.519 Q 74.622 43.569 74.722 49.669 A 8.859 8.859 0 0 0 74.433 49.441 Q 73.808 48.968 73.182 48.678 A 4.724 4.724 0 0 0 71.322 48.219 Q 69.622 48.169 67.522 48.369 Q 66.722 48.469 65.822 48.569 A 15.478 15.478 0 0 1 65.308 48.618 A 17.959 17.959 0 0 1 63.922 48.669 Q 62.922 48.669 62.072 48.619 A 30.51 30.51 0 0 0 61.861 48.608 A 27.787 27.787 0 0 0 60.422 48.569 Q 58.622 48.369 57.272 48.469 A 2.514 2.514 0 0 0 55.737 49.117 A 3.382 3.382 0 0 0 55.122 49.869 Q 55.822 51.969 56.622 53.869 Q 57.422 55.769 58.522 57.469 A 79.46 79.46 0 0 1 58.521 57.821 A 88.269 88.269 0 0 1 58.472 60.369 A 97.827 97.827 0 0 1 58.459 60.746 A 108.078 108.078 0 0 1 58.322 63.469 Q 58.222 66.369 58.222 69.219 A 31.779 31.779 0 0 0 58.224 69.584 Q 58.239 70.851 58.355 71.985 A 19.107 19.107 0 0 0 58.722 74.269 A 8.406 8.406 0 0 0 59.257 75.928 A 5.913 5.913 0 0 0 60.622 77.869 A 3.897 3.897 0 0 0 61.549 78.504 Q 62.703 79.076 64.429 79.076 A 11.009 11.009 0 0 0 64.822 79.069 A 86.176 86.176 0 0 0 65.239 70.493 A 94.904 94.904 0 0 0 65.222 68.719 A 65.151 65.151 0 0 0 65.035 64.812 A 53.322 53.322 0 0 0 64.222 58.769 A 1.405 1.405 0 0 1 64.625 58.407 A 1.756 1.756 0 0 1 65.072 58.219 Q 65.489 58.106 65.59 57.676 A 1.344 1.344 0 0 0 65.622 57.369 Q 65.222 56.769 64.822 56.069 A 5.083 5.083 0 0 1 64.525 55.455 A 6.208 6.208 0 0 1 64.222 54.469 Q 64.757 54.35 65.414 54.302 A 13.124 13.124 0 0 1 66.372 54.269 Q 67.622 54.269 69.122 54.369 Q 70.422 54.369 71.822 54.419 A 26.461 26.461 0 0 0 72.767 54.436 A 29.404 29.404 0 0 0 74.722 54.369 A 32.728 32.728 0 0 1 74.986 56.216 A 37.919 37.919 0 0 1 75.222 60.519 Q 75.222 63.769 75.022 67.069 Q 75.022 68.469 74.972 69.919 Q 74.922 71.369 74.922 72.669 A 32.57 32.57 0 0 0 75.054 75.649 A 25.656 25.656 0 0 0 75.722 79.619 A 10.213 10.213 0 0 0 75.843 80.055 A 7.926 7.926 0 0 0 79.022 84.469 A 17.98 17.98 0 0 0 80.441 82.256 A 20.109 20.109 0 0 0 82.372 77.019 A 22.523 22.523 0 0 0 82.485 76.486 Q 83.137 73.195 83.024 68.799 A 57.644 57.644 0 0 0 82.922 66.569 Q 82.422 58.369 81.872 49.769 Q 81.322 41.169 81.222 32.969 Q 81.222 29.369 81.622 26.119 Q 82.022 22.869 82.522 19.869 Q 83.022 16.769 83.372 13.919 A 26.763 26.763 0 0 0 83.436 13.347 Q 83.561 12.111 83.561 10.942 Z M 21.063 48.244 A 11.755 11.755 0 0 0 22.322 47.269 Q 21.122 40.369 17.222 36.169 Q 14.122 32.869 9.922 30.919 A 70.066 70.066 0 0 0 8.864 30.439 A 76.847 76.847 0 0 0 1.022 27.469 A 1.195 1.195 0 0 0 0.985 27.461 Q 0.606 27.379 0.272 27.569 Q -0.039 27.747 0.006 28.162 A 1.2 1.2 0 0 0 0.022 28.269 A 63.163 63.163 0 0 1 0.7 29.008 Q 1.844 30.273 3.222 31.919 Q 5.022 34.069 6.822 36.869 Q 8.422 39.269 10.122 42.369 A 22.852 22.852 0 0 0 11.601 44.727 A 17.476 17.476 0 0 0 14.022 47.469 Q 15.722 49.069 17.772 49.269 A 3.549 3.549 0 0 0 18.117 49.286 Q 19.492 49.286 21.063 48.244 Z M 19.422 70.719 A 29.961 29.961 0 0 0 19.421 70.712 Q 18.921 66.767 17.522 63.869 A 98.926 98.926 0 0 1 17.451 64.071 Q 16.765 66.019 15.672 68.869 Q 14.522 71.869 13.222 74.169 A 24.133 24.133 0 0 0 12.703 73.974 Q 11.078 73.385 8.972 72.869 Q 6.522 72.269 4.472 72.069 A 12.323 12.323 0 0 0 4.338 72.057 Q 2.399 71.889 1.722 72.469 Q 4.222 74.169 6.272 76.569 Q 8.322 78.969 10.622 81.169 A 14.205 14.205 0 0 0 12.845 82.903 A 17.103 17.103 0 0 0 16.322 84.569 A 10.97 10.97 0 0 0 18.258 81.589 A 14.174 14.174 0 0 0 19.222 78.419 A 24.161 24.161 0 0 0 19.631 73.976 A 25.915 25.915 0 0 0 19.422 70.719 Z M 22.255 19.336 A 1.266 1.266 0 0 0 22.522 18.969 A 10.255 10.255 0 0 0 22.822 17.934 Q 23.291 15.915 22.772 14.119 Q 22.122 11.869 20.422 10.169 A 18.098 18.098 0 0 0 17.779 7.837 A 22.278 22.278 0 0 0 13.822 5.569 Q 11.322 4.444 9.252 3.632 A 59.499 59.499 0 0 0 6.922 2.769 Q 8.022 4.669 8.922 7.519 A 110.042 110.042 0 0 1 8.962 7.645 Q 9.553 9.526 9.923 10.942 A 34.352 34.352 0 0 1 10.222 12.169 Q 12.222 14.269 14.572 16.069 Q 16.922 17.869 19.122 19.669 Q 19.447 19.588 20.036 19.639 A 7.511 7.511 0 0 1 20.322 19.669 Q 20.922 19.669 21.572 19.619 Q 21.984 19.588 22.255 19.336 Z" vector-effect="non-scaling-stroke"/></g></svg>