<svg width="92.3" height="92.306" viewBox="0 0 92.3 92.306" xmlns="http://www.w3.org/2000/svg"><g id="svgGroup" stroke-linecap="round" fill-rule="evenodd" font-size="9pt" stroke="#000" stroke-width="0.25mm" fill="#000" style="stroke:#000;stroke-width:0.25mm;fill:#000"><path d="M 73.372 32.935 A 3.791 3.791 0 0 0 75.3 31.3 A 2.235 2.235 0 0 0 75.255 30.834 Q 75.111 30.161 74.508 29.947 A 1.881 1.881 0 0 0 73.95 29.85 A 12.543 12.543 0 0 1 72.817 29.758 A 9.7 9.7 0 0 1 71.5 29.5 Q 71 27.6 69.35 26.6 A 10.959 10.959 0 0 0 68.106 25.952 A 12.789 12.789 0 0 0 65.6 25.15 Q 63.5 24.7 61.45 24.55 A 40.564 40.564 0 0 1 60.519 24.471 Q 59.048 24.33 57.9 24.1 A 6.158 6.158 0 0 1 57.685 24.283 Q 55.924 25.709 53.1 25.85 Q 51.506 25.93 50.082 25.826 A 18.141 18.141 0 0 1 47.7 25.5 A 16.927 16.927 0 0 1 47.706 25.447 Q 47.908 23.78 48.4 22.5 A 4.892 4.892 0 0 1 48.465 22.34 A 3.957 3.957 0 0 1 50 20.5 A 26.687 26.687 0 0 1 50.692 20.384 A 29.561 29.561 0 0 1 54.6 20.05 Q 57 20 59.5 20 Q 63.8 19.9 67.7 19.55 Q 71.6 19.2 74.1 17.4 A 5.653 5.653 0 0 0 72.815 15.585 A 5.937 5.937 0 0 0 70.75 14.35 A 32.37 32.37 0 0 0 69.4 13.896 A 37.431 37.431 0 0 0 65.7 12.95 A 20.939 20.939 0 0 1 63.75 12.457 A 16.598 16.598 0 0 1 60.9 11.3 A 14.831 14.831 0 0 0 60.703 11.367 Q 60.475 11.447 60.2 11.55 Q 59.8 11.7 59.4 11.9 A 57.963 57.963 0 0 1 58.797 12.126 Q 57.872 12.466 56.832 12.816 A 99.02 99.02 0 0 1 54.55 13.55 Q 53.133 13.988 51.863 13.988 A 6.569 6.569 0 0 1 49.6 13.6 A 11.817 11.817 0 0 0 50.116 12.715 Q 51.155 10.731 50.95 9.05 Q 50.7 7 49.3 5.4 A 9.946 9.946 0 0 0 48.588 4.663 Q 47.536 3.679 46.116 2.896 A 17.778 17.778 0 0 0 43.55 1.75 Q 39.8 0.4 36 0 A 12.092 12.092 0 0 0 35.917 0.339 Q 35.558 1.911 35.752 3.091 A 3.917 3.917 0 0 0 36.15 4.3 A 18.513 18.513 0 0 0 36.258 4.5 A 20.042 20.042 0 0 0 38.2 7.4 A 4.891 4.891 0 0 0 38.243 7.464 Q 38.34 7.603 38.457 7.753 A 8.43 8.43 0 0 0 38.7 8.05 Q 38.859 8.236 38.991 8.408 A 5.638 5.638 0 0 1 39.2 8.7 A 12.131 12.131 0 0 1 39.634 9.319 A 13.711 13.711 0 0 1 40.75 11.4 A 5.681 5.681 0 0 1 40.852 11.651 Q 41.392 13.081 41.3 15.1 A 34.611 34.611 0 0 1 36.401 15.456 A 32.471 32.471 0 0 1 35.8 15.45 Q 33.1 15.4 30.5 15.3 Q 29.7 15.2 28.95 15.15 A 21.484 21.484 0 0 0 28.762 15.138 A 23.585 23.585 0 0 0 27.4 15.1 Q 24.9 14.9 22.3 14.75 Q 19.7 14.6 17.1 14.7 A 13.953 13.953 0 0 0 17.614 16.247 A 10.897 10.897 0 0 0 20.7 20.6 Q 23.3 22.8 26.1 24.8 A 17.967 17.967 0 0 1 29.204 23.646 A 22.673 22.673 0 0 1 33.2 22.95 Q 37.2 22.6 41.3 21.6 A 2.58 2.58 0 0 1 41.34 21.76 Q 41.495 22.471 41.45 23.9 A 10.366 10.366 0 0 1 41.429 24.316 Q 41.334 25.646 40.9 26.6 Q 37.863 26.825 35.221 27.129 A 96.05 96.05 0 0 0 31.35 27.65 A 52.434 52.434 0 0 0 28.815 28.11 A 44.073 44.073 0 0 0 23.65 29.5 Q 20.1 30.7 16.3 33.1 Q 18.7 34.2 21.2 35.3 Q 23.7 36.4 25 38.5 Q 25.082 38.992 24.491 39.148 A 2.026 2.026 0 0 1 24.2 39.2 A 3.247 3.247 0 0 0 24.164 39.205 Q 23.766 39.267 23.607 39.396 A 0.257 0.257 0 0 0 23.5 39.6 A 2.44 2.44 0 0 1 24.087 40.16 Q 24.545 40.762 24.8 41.75 A 12.052 12.052 0 0 1 25.073 43.164 A 14.976 14.976 0 0 1 25.2 45.15 Q 25.2 47 24.75 48.4 A 5.669 5.669 0 0 1 24.676 48.617 Q 24.236 49.816 23.5 50 A 2.63 2.63 0 0 1 24.158 51.075 A 3.198 3.198 0 0 1 24.3 52.05 Q 24.3 53.3 24.1 54.6 Q 23.9 56.2 23.95 57.7 A 2.711 2.711 0 0 0 24.582 59.393 A 3.551 3.551 0 0 0 25.4 60.1 A 1.321 1.321 0 0 1 24.755 60.451 A 1.976 1.976 0 0 1 24.3 60.5 A 2.803 2.803 0 0 0 23.803 60.542 A 2.064 2.064 0 0 0 23.1 60.8 A 42.182 42.182 0 0 0 23.791 61.356 Q 24.58 61.979 25.498 62.648 A 77.214 77.214 0 0 0 27.2 63.85 A 12.706 12.706 0 0 0 27.783 64.228 Q 28.653 64.759 29.496 65.068 A 6.667 6.667 0 0 0 31.8 65.5 Q 33.2 65.5 34.3 64.6 Q 35.4 63.7 36.7 63.3 A 24.146 24.146 0 0 1 39.177 62.745 A 28.863 28.863 0 0 1 43.65 62.35 Q 47.4 62.3 51.35 62.2 Q 55.3 62.1 59 61.2 Q 59.8 61.9 60.45 62.75 Q 61.1 63.6 62.1 64.1 Q 62.966 64.36 63.57 64.357 A 2.499 2.499 0 0 0 63.75 64.35 A 15.625 15.625 0 0 0 63.912 64.337 A 14.071 14.071 0 0 0 65 64.2 Q 65.6 64.2 66.2 64.15 A 2.139 2.139 0 0 1 66.378 64.143 Q 66.739 64.143 67.196 64.254 A 6.287 6.287 0 0 1 67.7 64.4 Q 67.9 60.6 67.9 57.4 A 202.423 202.423 0 0 0 67.898 56.603 A 184.016 184.016 0 0 0 67.8 51.2 Q 67.7 47.6 67.7 43.95 A 70.738 70.738 0 0 1 67.708 42.903 Q 67.732 41.301 67.827 39.512 A 123.196 123.196 0 0 1 68.1 35.6 A 4.172 4.172 0 0 1 69.098 34.625 A 5.067 5.067 0 0 1 70.35 34 Q 71.8 33.5 73.2 33 A 4.812 4.812 0 0 0 73.372 32.935 Z M 89.373 71.631 A 26.328 26.328 0 0 0 92.3 71.3 A 8.46 8.46 0 0 0 91.857 69.862 A 6.223 6.223 0 0 0 90.35 67.65 Q 88.9 66.3 87 65.5 Q 84.3 64.4 81.15 63.95 Q 78 63.5 75.3 63 A 14.43 14.43 0 0 1 73.871 63.739 A 16.421 16.421 0 0 1 70.35 64.85 A 40.646 40.646 0 0 1 69.572 64.998 A 45.001 45.001 0 0 1 64.6 65.6 A 48.616 48.616 0 0 1 62.044 65.667 A 50.498 50.498 0 0 1 60.75 65.65 Q 58.8 65.6 56.9 65.6 A 54.532 54.532 0 0 0 56.012 65.552 A 46.947 46.947 0 0 0 53.85 65.5 L 51.1 65.5 Q 42.6 65.6 33.9 66.45 A 987.364 987.364 0 0 0 31.734 66.664 A 898.666 898.666 0 0 0 17.05 68.25 Q 8.9 69.2 1.9 69.8 A 0.993 0.993 0 0 1 1.886 69.972 Q 1.794 70.493 1.1 70.45 A 2.423 2.423 0 0 0 1.064 70.448 Q 0.775 70.434 0.553 70.494 A 0.887 0.887 0 0 0 0 70.9 L 1.6 71.9 L 3.2 72.9 Q 5.6 74.6 8.25 76.05 A 10.973 10.973 0 0 0 13.602 77.406 A 12.348 12.348 0 0 0 14 77.4 A 4.935 4.935 0 0 0 14.156 77.398 Q 14.704 77.38 15.301 77.242 A 8.283 8.283 0 0 0 16.4 76.9 Q 17.7 76.4 19.2 75.7 Q 21.8 74.6 24.55 73.8 A 7.483 7.483 0 0 1 25.141 73.653 Q 25.785 73.522 26.397 73.522 A 5.402 5.402 0 0 1 29.5 74.5 A 15.436 15.436 0 0 1 28.485 76.596 A 17.201 17.201 0 0 1 25.4 80.45 Q 22.6 83.1 19.75 85.55 A 24.727 24.727 0 0 0 19.667 85.622 Q 18.382 86.736 17.397 87.902 A 15.14 15.14 0 0 0 15.5 90.7 Q 17.647 91.353 19.445 91.353 A 9.698 9.698 0 0 0 19.7 91.35 A 13.132 13.132 0 0 1 20.045 91.345 A 13.525 13.525 0 0 1 23.5 91.8 A 5.798 5.798 0 0 1 23.832 91.435 A 6.666 6.666 0 0 1 24.7 90.7 L 26.1 89.7 A 21.275 21.275 0 0 0 26.946 89.128 A 17.919 17.919 0 0 0 28.6 87.8 A 3.458 3.458 0 0 0 28.692 87.713 Q 29.551 86.873 29.53 85.695 A 3.441 3.441 0 0 0 29.5 85.3 Q 31.163 84.469 32.79 83.056 A 23.857 23.857 0 0 0 35 80.85 A 48.073 48.073 0 0 1 37.039 78.682 A 39.218 39.218 0 0 1 40.5 75.6 Q 40.6 74.9 40.25 74.3 A 6.641 6.641 0 0 0 40.239 74.281 Q 39.894 73.694 39.5 73.3 A 5.728 5.728 0 0 1 39.464 73.259 Q 38.707 72.391 39 72 A 64.125 64.125 0 0 0 39.878 71.944 A 70.794 70.794 0 0 0 46.2 71.2 A 51.749 51.749 0 0 1 48.682 70.86 A 61.388 61.388 0 0 1 54.1 70.5 Q 55.5 72 56.95 73.35 A 18.082 18.082 0 0 1 58.432 74.915 A 24.77 24.77 0 0 1 59.8 76.7 Q 61.9 79.5 63.1 82.7 A 28.363 28.363 0 0 0 64.092 85.033 A 22.527 22.527 0 0 0 66 88.3 Q 67.5 90.4 69.95 91.55 Q 71.98 92.503 75.349 92.254 A 23.618 23.618 0 0 0 76.8 92.1 A 18.999 18.999 0 0 0 76.939 91.219 Q 77.116 89.896 77.083 88.666 A 12.861 12.861 0 0 0 76.75 86.05 Q 76.1 83.3 74.7 81 Q 72.5 77.6 69.05 75.1 Q 65.6 72.6 62.1 70.9 Q 65.9 70.6 69.55 70.75 Q 73.2 70.9 76.6 71.1 Q 77.1 71.1 77.55 71.15 A 7.738 7.738 0 0 0 77.807 71.174 A 8.979 8.979 0 0 0 78.5 71.2 Q 82.4 71.5 85.9 71.65 Q 87.717 71.728 89.373 71.631 Z M 58.3 57.2 A 95.141 95.141 0 0 0 58.488 51.171 A 105.55 105.55 0 0 0 58.25 44.15 Q 57.8 37.4 56.4 30.9 A 27.994 27.994 0 0 0 53.034 30.539 Q 51.112 30.445 49.003 30.577 A 42.461 42.461 0 0 0 48.65 30.6 Q 44.4 30.9 40.2 31.75 A 63.724 63.724 0 0 0 35.846 32.784 A 49.149 49.149 0 0 0 32.6 33.8 A 5.552 5.552 0 0 1 33.303 35.156 A 4.936 4.936 0 0 1 33.5 35.9 Q 33.699 36.995 32.908 38.089 A 4.561 4.561 0 0 1 32.9 38.1 Q 33.2 38.1 33.9 38 A 111.378 111.378 0 0 1 39.205 37.281 A 91.545 91.545 0 0 1 42.2 37 A 27.13 27.13 0 0 1 44.212 36.918 Q 45.932 36.914 47.502 37.145 A 18.587 18.587 0 0 1 49.3 37.5 A 10.707 10.707 0 0 1 54.209 40.278 A 13.346 13.346 0 0 1 54.9 41 Q 52.3 41.1 49.75 41.55 Q 47.2 42 44.7 42.4 Q 41.6 43 38.5 43.45 Q 35.4 43.9 32.2 43.9 A 3.246 3.246 0 0 0 32.122 44.353 A 4.346 4.346 0 0 0 32.1 44.8 L 32.1 45.8 A 6.592 6.592 0 0 1 32.167 46.733 A 6.548 6.548 0 0 1 32.15 47.2 A 4.234 4.234 0 0 1 31.888 48.381 A 4.901 4.901 0 0 1 31.8 48.6 Q 35.8 48.3 39.6 47.7 A 100.42 100.42 0 0 0 42.309 47.236 Q 44.45 46.838 46.2 46.4 Q 48.8 47.2 51.4 48.1 A 11.869 11.869 0 0 1 53.618 49.12 A 9.159 9.159 0 0 1 55.6 50.7 Q 53.1 50.8 50.65 51.2 Q 48.2 51.6 45.7 52.1 Q 42.3 52.7 38.85 53.2 A 40.765 40.765 0 0 1 32.996 53.617 A 43.065 43.065 0 0 1 31.8 53.6 A 1.577 1.577 0 0 1 31.991 54.067 Q 32.054 54.351 32 54.65 A 7.832 7.832 0 0 1 31.836 55.357 A 9.433 9.433 0 0 1 31.7 55.8 Q 31.6 56.3 31.45 56.9 A 2.996 2.996 0 0 0 31.373 57.378 Q 31.338 57.8 31.4 58.3 A 33.43 33.43 0 0 0 33.869 58.389 Q 35.245 58.389 36.702 58.284 A 43.986 43.986 0 0 0 37.15 58.25 Q 40.2 58 43.3 57.6 Q 47.3 57.1 51.15 56.85 Q 55 56.6 58.3 57.2 Z" id="0" vector-effect="non-scaling-stroke"/></g></svg>